# xmcd
#
# Track frame offsets:
#	150
#	754
#	18871
#	34998
#	41607
#	55443
#	72665
#	91521
#	106974
#	121216
#	134974
#	151214
#	168779
#	180662
#	193860
#	206080
#	223476
#	236787
#	247980
#	264263
#	283203
#	301916
#	313701
#	328053
#	342083
#
# Disc length: 4744 seconds
#
# Revision: 0
# Processed by: cddbd v1.5.1PL2 Copyright (c) Steve Scherf et al.
# Submitted via: dBpowerAMP V4.0
#
DISCID=6c128619
DTITLE=Mix - Country
DYEAR=1900
DGENRE=Country
TTITLE0=no
TTITLE1=yes
TTITLE2=no
TTITLE3=no
TTITLE4=no
TTITLE5=no
TTITLE6=no
TTITLE7=no
TTITLE8=no
TTITLE9=no
TTITLE10=no
TTITLE11=no
TTITLE12=no
TTITLE13=yes
TTITLE14=no
TTITLE15=yes
TTITLE16=no
TTITLE17=no
TTITLE18=yes
TTITLE19=no
TTITLE20=no
TTITLE21=no
TTITLE22=yes
TTITLE23=no
TTITLE24=yes
EXTD=country
EXTT0=
EXTT1=
EXTT2=
EXTT3=
EXTT4=
EXTT5=
EXTT6=
EXTT7=
EXTT8=
EXTT9=
EXTT10=
EXTT11=
EXTT12=
EXTT13=
EXTT14=
EXTT15=
EXTT16=
EXTT17=
EXTT18=
EXTT19=
EXTT20=
EXTT21=
EXTT22=
EXTT23=
EXTT24=
PLAYORDER=
